<svg width="148" height="143" viewBox="0 0 148 143" fill="none" xmlns="http://www.w3.org/2000/svg">
<g opacity="0.1">
<path d="M137.352 41.688C140.436 44.6258 141.921 48.5379 142.457 52.5458C142.847 54.279 142.288 56.1081 141.227 57.3233C137.766 61.8833 133.803 65.8293 128.168 67.7287C125.248 68.7626 123.165 70.8198 120.876 73.0454C115.686 78.0019 110.7 82.7899 105.175 87.3371C97.2314 93.5321 89.1211 99.5225 81.2153 105.344C77.1602 108.34 73.8112 111.78 69.756 114.776C65.9055 117.602 61.7206 120.02 57.2013 122.028C54.6535 123.098 52.4025 124.951 50.3562 126.635C48.1427 128.114 46.2636 130.003 44.3845 131.892C40.8309 135.501 37.0204 134.188 34.2157 130.335C31.7454 126.892 31.209 122.884 32.9784 118.348C37.0937 109.142 41.3762 100.142 45.3243 90.7317C47.0188 86.9413 48.8805 83.3555 50.2032 79.5289C51.3588 75.4975 53.9641 71.9842 55.6586 68.1938C57.3532 64.4034 59.5867 60.8539 59.8689 56.1723C60.0012 52.983 60.468 50.203 58.9085 47.0372C58.11 45.6408 58.669 43.8116 59.1906 42.3556C60.9226 38.1921 64.0295 35.2928 68.0098 33.0438C72.6039 30.2895 77.5873 29.2684 82.4784 27.2966C84.0406 26.6954 85.7325 26.672 87.2197 26.817C89.4506 27.0345 91.719 26.8789 93.9873 26.7234C101.536 26.3291 108.992 24.9841 116.334 28.5253C120.274 30.4164 124.698 31.2245 128.192 33.8255C131.685 36.4264 135.254 38.2813 137.352 41.688ZM73.1567 64.0605C73.1941 63.6874 73.2316 63.3144 72.8597 63.2781C72.4879 63.2419 72.8223 63.6512 72.7848 64.0243C71.5196 65.4078 71.1478 65.3716 70.554 63.8068C69.9227 62.615 69.6632 61.4596 71.0956 60.2807C70.3145 60.5812 68.9396 59.317 69.1242 61.2186C69.2165 62.1695 69.9775 63.9389 69.1964 64.2395C67.2625 64.8044 68.842 65.9002 68.3953 66.6101C67.744 67.4884 66.9629 67.789 65.8849 67.3072C65.3459 67.0663 65.049 66.2839 64.51 66.043C63.5965 69.5328 65.0463 70.0509 70.6985 69.8485C70.3641 69.4392 70.1969 69.2345 69.8625 68.8252C69.5282 68.4159 69.3984 67.8381 69.8077 67.5013C70.2169 67.1645 70.5888 67.2007 71.1278 67.4416C73.2089 69.1514 72.8197 67.4182 72.932 66.299C73.0069 65.5528 73.4536 64.8429 73.1567 64.0605ZM128.375 63.7932C126.721 63.4436 125.793 61.4694 123.896 61.6612C123.32 61.7934 123.227 60.8426 123.265 60.4695C123.489 58.231 124.458 56.0651 126.467 54.754C127.694 53.7435 128.922 52.7331 129.983 51.5179C132.96 48.0409 135.266 47.5123 138.333 48.7531C138.036 47.9707 137.739 47.1883 137.442 46.4059C137.275 46.2012 137.107 45.9965 136.94 45.7919C132.092 39.8566 126.35 35.3412 119.101 32.7508C117.279 32.1964 115.291 31.4374 113.674 30.7147C110.811 29.3055 107.67 28.8108 104.825 29.0985C100.66 29.4459 96.57 29.0472 92.5349 29.9723C91.0101 30.2004 89.3182 30.2238 87.6638 29.8741C86.753 29.597 85.6001 29.8613 84.6144 30.3303C79.7607 31.9291 74.7399 33.3232 70.1457 36.0775C67.1512 37.8575 64.8628 40.0831 63.4103 43.3321C62.7215 44.5835 62.7764 45.9074 63.3702 47.4722C64.4282 50.024 64.9097 52.7081 64.0712 55.4518C63.7542 56.7394 63.6419 57.8587 63.6967 59.1826C64.645 59.0867 65.4261 58.7861 65.8728 58.0762C66.5241 57.1979 66.9708 56.488 68.1237 56.2236C70.6716 55.1535 73.0522 53.8787 75.7298 53.3863C78.7793 52.9301 82.2379 52.1372 85.3048 53.378C87.1264 53.9323 89.0778 55.0644 91.0666 55.8234C96.0848 58.1963 98.1833 61.6031 97.1575 66.2122C96.7282 68.619 95.4255 70.3757 93.9182 72.3007C91.7596 75.1041 89.304 77.125 86.6438 79.3144C81.9373 83.1879 76.8791 84.9551 70.8377 83.4243C65.7072 82.1706 62.6229 79.2328 61.8645 73.6963C61.68 71.7947 61.0861 70.2299 60.5671 67.9189C56.6765 74.8858 53.9014 81.9614 50.5872 88.7961C51.3683 88.4955 51.5729 88.3271 51.815 87.7856C52.8756 86.5705 53.769 85.1507 54.8296 83.9355C55.4809 83.0572 56.7087 82.0468 57.7493 82.9017C58.957 83.9612 60.1099 83.6969 61.4674 83.2642C62.6203 82.9998 64.1076 83.1448 65.5948 83.2898C67.9929 83.712 70.074 85.4218 69.8494 87.6603C69.6795 91.2227 68.2645 94.0985 65.5669 96.661C63.4831 98.7182 60.6009 99.379 57.5889 99.4621C56.8453 99.3896 56.0642 99.6901 55.2832 99.9907C53.721 100.592 52.643 100.11 51.6399 98.882C50.1352 97.0401 49.4116 94.8975 49.4691 92.4544C49.6737 92.286 49.7112 91.9129 49.3394 91.8766C48.9676 91.8404 48.9301 92.2135 48.8927 92.5866C47.5151 95.0893 46.5093 97.6284 45.1318 100.131C43.3075 103.344 42.7284 107.243 40.6995 110.624C40.0108 111.876 38.5409 113.428 38.7629 114.956C38.9475 116.858 37.9244 117.7 37.2356 118.951C36.714 120.407 36.0252 121.659 36.5816 123.597C37.0083 124.957 36.4867 126.413 37.2852 127.809C38.5478 130.193 39.9976 130.711 42.0064 129.4C42.6203 128.894 43.2342 128.389 43.8481 127.884C45.6898 126.368 47.4017 124.275 49.3731 123.337C54.097 121.16 57.5209 116.973 61.4089 113.773C62.8413 112.595 63.9394 111.006 65.4092 109.454C63.383 109.068 62.2501 107.263 60.1864 107.25C59.4428 107.177 58.9412 106.563 58.8489 105.613C58.7192 105.035 59.1659 104.325 59.7423 104.193C61.4342 104.169 62.123 102.918 63.3133 102.281C65.1176 101.138 66.772 101.488 68.1095 103.125C68.9454 104.148 69.0003 105.472 69.0551 106.796C72.3667 103.728 76.4767 102.057 79.7882 98.9893C79.1195 98.1707 78.3758 98.0982 77.5199 99.1449C76.6639 100.192 75.7156 100.288 75.9029 98.4221C75.9403 98.0491 75.7731 97.8444 75.8106 97.4713C74.1213 93.7277 75.983 90.1419 79.9807 89.5899C81.5054 89.3618 82.6583 89.0975 84.183 88.8694C85.3359 88.6051 86.2842 88.5092 87.3622 88.991C88.6074 89.6775 88.495 90.7967 88.5499 92.1206C91.2475 89.5582 94.1123 87.2004 96.81 84.6379C95.3227 84.4929 94.4119 84.2158 93.3713 83.3609C91.959 82.4697 92.201 81.9282 93.0945 80.5084C95.9044 76.8267 100.144 75.7332 104.05 74.2303C104.626 74.0981 105.37 74.1706 105.499 74.7484C105.964 75.7355 106.373 75.3986 106.987 74.8934C107.805 74.2197 108.494 72.9683 109.48 72.4994C112.474 70.7193 114.633 67.9159 117.088 65.895C118.725 64.5477 118.541 62.646 116.794 61.3456C116.255 61.1046 115.549 60.6591 115.624 59.9129C115.569 58.589 114.324 57.9025 113.246 57.4207C106.778 54.5297 99.8256 52.7217 92.6314 51.4552C84.8981 49.9478 77.0151 49.9327 69.1495 51.6145C68.3684 51.9151 67.5499 52.5888 66.9186 51.397C66.4545 50.41 67.6074 50.1456 68.2213 49.6404C68.6305 49.3036 69.207 49.1714 69.6162 48.8346C72.1266 48.1375 74.8043 47.6451 77.2772 47.3211C82.7622 46.9141 87.9676 47.4216 93.5074 48.3384C100.33 49.5687 106.743 51.1358 113.044 53.8221C116.65 55.3038 119.846 57.1224 121.331 61.0344C121.795 62.0215 122.965 63.4541 121.737 64.4646C118.668 66.9908 116.434 70.5403 113.198 72.8619C108.696 76.5669 104.361 80.4767 99.9891 84.7595C94.7985 89.716 89.8125 94.5041 84.1203 98.8466C82.4832 100.194 80.6415 101.71 79.0045 103.057C83.0222 100.435 86.8727 97.608 90.5186 94.9497C96.1734 90.9803 101.122 86.5653 106.61 82.3912C111.111 78.6861 115.112 74.367 119.651 70.2888C122.014 67.3171 125.009 65.537 128.375 63.7932C128.71 64.2026 128.914 64.0341 129.119 63.8657C128.747 63.8295 128.375 63.7932 128.375 63.7932ZM87.7445 73.9592C90.5719 71.9745 92.3213 69.5079 93.5317 66.8005C94.7046 64.4661 94.2605 61.409 92.5138 60.1085C88.1469 56.8573 83.1287 54.4844 77.4391 55.0598C73.6461 55.4435 67.9739 57.7159 66.2245 60.1825C67.6944 58.6305 69.5909 58.4387 71.4874 58.2469C72.8075 58.1872 73.3465 58.4281 73.8106 59.4152C75.8343 63.5681 75.0506 67.6357 73.1514 71.5946C73.6904 71.8355 74.434 71.908 74.973 72.1489C75.8839 72.4261 76.5526 73.2447 76.2731 74.1593C75.5843 75.4107 76.2156 76.6024 76.3079 77.5532C76.5674 78.7087 76.6597 79.6595 75.8037 80.7063C78.389 79.263 81.6056 79.0116 83.9314 76.4129C81.5882 77.3146 79.5245 77.3017 78.2245 75.2914C76.59 72.8716 78.841 71.0191 80.0139 68.6847C79.0282 69.1537 77.8205 68.0941 77.1317 69.3455C76.8896 69.887 76.9819 70.8378 76.0711 70.5607C75.1603 70.2835 75.2352 69.5374 75.31 68.7912C75.405 65.975 75.6671 63.3635 76.1338 60.5835C76.638 57.4305 78.9813 56.5287 81.6763 57.7333C82.7543 58.2152 83.4605 58.6607 84.5385 59.1426C88.5161 60.6605 88.8679 62.7668 85.8907 66.2439C85.444 66.9538 83.9193 67.1818 84.2162 67.9642C84.8475 69.156 85.9081 67.9408 86.6517 68.0133C87.6 67.9174 88.139 68.1583 88.6406 68.7723C89.1421 69.3863 89.0672 70.1325 88.6205 70.8424C88.88 71.9979 88.4333 72.7078 87.7445 73.9592ZM55.5532 86.0781C54.1956 86.5108 54.3802 88.4125 53.3571 89.2545C52.1293 90.265 51.8123 91.5527 51.4954 92.8403C51.141 94.501 51.902 96.2705 52.9051 97.4985C53.741 98.5218 54.9688 97.5113 55.9171 97.4154C57.2372 97.3558 58.2229 96.8868 59.543 96.8271C60.4912 96.7312 61.2723 96.4306 62.0534 96.13C64.6387 94.6868 65.6444 92.1478 66.8174 89.8134C67.7857 87.6475 66.9872 86.2511 64.5891 85.8289C62.9346 85.4792 61.4099 85.7073 60.0524 86.14C59.1041 86.2359 58.1559 86.3319 57.2825 85.6816C56.6138 84.863 56.0373 84.9951 55.5532 86.0781ZM130.107 59.6297C131.28 57.2953 134.367 56.4661 135.577 53.7587C135.857 52.8441 136.304 52.1342 135.802 51.5202C135.301 50.9062 134.649 51.7845 133.868 52.0851C131.655 53.5646 129.943 55.658 128.398 57.9561C127.747 58.8345 127.709 59.2075 128.211 59.8215C128.879 60.6402 129.326 59.9303 130.107 59.6297ZM76.2225 93.3675C77.3005 93.8493 78.3785 94.3311 79.2518 94.9814C79.958 95.427 80.3298 95.4632 80.9437 94.958C82.3761 93.7791 83.6414 92.3955 84.5722 90.6026C81.8572 91.4681 78.4185 90.191 76.2225 93.3675ZM67.5314 78.9579C65.7673 75.9605 65.8047 75.5874 69.563 71.8098C67.1275 71.7607 64.8217 72.2894 63.1498 70.2427C63.7236 73.8776 63.7584 77.2715 67.5314 78.9579ZM64.346 114.437C68.9027 112.055 72.2517 108.615 75.9725 105.21C71.4532 107.218 67.8996 110.827 64.346 114.437ZM79.0335 61.6197C78.8288 61.7881 78.8288 61.7881 78.6242 61.9565C78.3447 62.8711 77.9903 64.5318 78.3621 64.568C79.4401 65.0499 80.5181 65.5317 81.3915 66.1819C82.2648 66.8322 83.4926 65.8217 84.3486 64.775C81.8756 65.099 79.6822 64.5084 79.0335 61.6197ZM83.7373 61.5132C79.7971 59.6221 79.7971 59.6221 78.9412 60.6688C81.0423 60.3086 81.5813 60.5495 81.691 63.1973C81.9706 62.2827 82.5844 61.7775 83.7373 61.5132ZM69.3183 76.1183C70.4337 76.2271 70.8604 77.5872 71.921 76.3721C72.3677 75.6622 72.0708 74.8798 71.9036 74.6751C70.6209 74.3617 70.1368 75.4447 69.3183 76.1183ZM136.486 57.8029C134.272 59.2823 133.137 61.2436 131.5 62.5909C133.471 61.6529 135.313 60.1372 136.486 57.8029ZM94.9535 80.6897C96.4782 80.4616 96.4782 80.4616 97.9855 78.5365C96.4608 78.7646 95.9767 79.8476 94.9535 80.6897ZM62.5671 105.975C63.8497 106.288 64.3513 106.902 65.0026 106.024C65.4119 105.687 65.2821 105.11 64.7431 104.869C64.0369 104.423 63.7574 105.338 62.5671 105.975ZM84.231 73.4282C82.9109 73.4879 82.614 72.7055 82.075 72.4646C81.6657 72.8014 81.219 73.5113 81.5534 73.9206C82.2596 74.3662 82.8735 73.861 84.231 73.4282Z" fill="#060606"/>
<path d="M72.7335 64.0369C72.9386 63.8688 72.4354 63.2558 72.8082 63.2921C73.1811 63.3285 73.1438 63.7008 73.1064 64.0732C72.9013 64.2412 72.7335 64.0369 72.7335 64.0369Z" fill="#FBFBFB"/>
<path d="M48.4192 92.7676C48.4569 92.3951 48.4946 92.0226 48.8666 92.0585C49.2387 92.0945 49.201 92.467 48.9961 92.6353C48.7913 92.8036 48.7913 92.8036 48.4192 92.7676Z" fill="#FBFBFB"/>
<path d="M128.413 63.6264C128.786 63.6632 128.786 63.6632 129.158 63.7C128.954 63.868 128.749 64.0359 128.413 63.6264C128.208 63.7944 128.413 63.6264 128.413 63.6264Z" fill="#FBFBFB"/>
<path d="M102.312 59.4673C104.638 56.8713 108.025 56.8267 111.709 57.5642C112.993 57.8783 113.905 58.1559 114.128 59.6838C114.556 61.0436 113.904 61.9211 112.881 62.7621C110.834 64.4441 108.489 65.3439 105.754 64.5111C104.675 64.0288 103.595 63.5465 102.404 64.1828C100.841 64.7827 100.413 63.423 99.911 62.809C99.2411 61.9903 100.227 61.5222 100.841 61.0176C100.916 60.2718 101.493 60.1401 102.312 59.4673ZM104.433 60.8047C106.629 61.3964 109.122 62.7702 111.076 60.1378C108.508 59.5097 106.275 59.2909 104.433 60.8047Z" fill="#060606"/>
<path d="M48.7793 107.277C49.1886 106.941 49.635 106.232 50.3423 106.678C51.2543 106.956 50.9755 107.87 50.9384 108.242C50.9576 109.939 51.3491 111.671 51.3683 113.367C51.2763 116.182 49.2299 117.863 46.6245 117.607C44.7635 117.424 43.7581 116.195 44.1111 114.536C44.9475 111.794 46.7329 108.958 48.7793 107.277ZM48.7437 111.415C48.9483 111.247 48.7807 111.042 48.7807 111.042C48.7807 111.042 48.5761 111.21 48.3715 111.378C47.6834 112.628 47.1999 113.71 46.8841 114.997C48.9868 114.639 49.2285 114.098 48.7437 111.415Z" fill="#060606"/>
<path d="M48.3661 111.372C48.5704 111.203 48.7748 111.035 48.7748 111.035C49.1464 111.072 48.9421 111.24 48.7377 111.408C48.5704 111.203 48.3661 111.372 48.3661 111.372Z" fill="#FBFBFB"/>
</g>
</svg>
