<svg width="137" height="149" viewBox="0 0 137 149" fill="none" xmlns="http://www.w3.org/2000/svg">
<g opacity="0.1">
<path d="M103.979 92.6058C106.302 95.3479 104.519 97.7678 102.45 99.3973C100.505 100.759 98.5238 100.796 96.5241 100.17L96.2563 100.042C93.7577 100.486 92.5064 98.2544 91.2734 96.6857C90.3084 95.2447 88.826 94.2111 87.4684 92.91C87.4684 92.91 87.2005 92.7823 86.9326 92.6546C86.1475 92.9343 84.9513 92.6911 84.3093 93.366C84.7386 94.5516 85.5606 95.5974 86.5072 96.3757C87.4539 97.1539 87.8833 98.3395 88.7052 99.3853C89.2593 100.303 88.2614 102.444 87.1021 103.526C85.1759 105.551 82.9267 105.459 80.4097 105.241C79.4814 105.125 78.0358 105.417 77.2322 105.034C76.9644 104.906 76.4287 104.651 76.1608 104.523C74.66 102.827 72.7667 101.27 71.5154 99.0389C71.2292 98.2485 70.6934 97.9931 70.1394 97.075C69.4421 95.7617 68.6386 95.3787 67.604 96.1935C66.5693 97.0082 65.5163 97.1602 64.3201 96.917C65.6778 98.2182 66.786 100.054 68.1436 101.355C69.5012 102.657 70.0737 104.237 70.5215 106.086C70.9508 107.271 70.184 108.214 68.8815 108.901C66.0087 110.147 62.9743 110.336 59.8152 110.792C58.3696 111.084 57.2798 109.91 56.0653 109.004C55.7975 108.877 55.1186 108.226 54.3151 107.843C53.5115 107.46 53.1005 106.937 52.8143 106.147C51.4199 103.52 49.1156 101.441 48.2385 98.4068C47.2222 99.8843 46.1692 100.036 44.8299 99.3979C44.2942 99.1426 43.4907 98.7595 43.1165 99.5621C42.867 100.097 43.6705 100.48 43.8137 100.875C45.7254 103.095 47.5124 105.581 49.4241 107.801C49.8351 108.323 50.103 108.451 50.5139 108.974C51.8716 110.275 51.9267 112.263 50.6426 113.613C47.6818 116.453 43.8806 117.584 39.6318 116.866C38.7035 116.751 38.4172 115.96 37.8815 115.705C36.256 114.276 34.3627 112.72 32.7372 111.291C30.3081 109.479 29.3063 106.712 27.5193 104.226C26.9652 103.308 26.8037 102.25 26.2496 101.332C26.1065 100.936 26.1065 100.936 25.5708 100.681C22.7675 99.6718 20.9989 97.8478 19.4798 95.4887C17.6928 93.0019 15.3885 90.9226 13.2089 88.5756C11.3155 87.0192 9.93948 85.0553 8.68818 82.8239C6.90118 80.3372 4.86471 78.3855 3.4703 75.7589C2.219 73.5275 1.23556 71.4238 0.376854 69.0525C-0.0524997 67.8669 -0.481855 66.6813 -1.03594 65.7632C-2.67983 63.6717 -3.66327 61.5679 -3.7368 58.917C-3.93507 56.5336 -5.3111 54.5697 -6.81187 52.8734C-8.45575 50.7819 -10.4922 48.8302 -12.1361 46.7386C-12.6902 45.8205 -13.6185 45.705 -14.1726 44.7869C-16.6384 41.6496 -16.6056 38.0684 -15.5197 34.3352C-15.1455 33.5326 -14.7713 32.7301 -14.665 31.7998C-14.5586 30.8695 -13.9166 30.1946 -13.0067 29.6474C-11.2932 29.4832 -9.74122 28.2611 -7.90302 27.8294C-5.27964 27.118 -2.74423 27.9996 -0.0840886 28.6137C2.57606 29.2277 5.37932 30.237 7.80838 32.0488C9.0229 32.9548 10.7548 33.4533 12.4682 33.2891C14.8421 33.1128 17.0729 32.5412 19.3221 32.6324C21.9639 32.5837 24.4809 32.8026 27.141 33.4167C29.2655 33.7754 30.7662 35.4717 32.3917 36.9005C33.7494 38.2016 35.3381 38.305 37.07 38.8035C37.6057 39.0589 37.9983 38.919 38.1046 37.9888C38.0862 37.3261 38.6035 36.9187 39.2824 37.5692C39.5502 37.6969 39.5502 37.6969 39.8181 37.8246C41.781 37.1254 43.9054 37.4841 45.7437 37.0524C46.9214 36.6328 47.9928 37.1435 49.0642 37.6543C50.4035 38.2927 51.7428 38.9311 53.082 39.5695C54.0287 40.3477 54.957 40.4632 55.7422 40.1835C57.063 40.1592 58.3839 40.1348 59.5617 39.7153C62.5777 38.8641 65.2194 38.8154 68.0411 40.4874C69.916 41.3812 72.0405 41.7399 74.0034 41.0406C77.0194 40.1894 79.5548 41.071 81.4481 42.6275C84.145 44.567 86.7172 46.774 88.7721 49.3885C90.1481 51.3523 91.9167 53.1763 93.9348 54.4653C96.096 56.1495 97.7399 58.241 99.3838 60.3326C101.85 63.4699 104.315 66.6072 107.174 69.6047C107.585 70.1276 107.853 70.2552 107.871 70.918C108.748 73.9519 111.052 76.0313 113.232 78.3782C114.733 80.0746 115.573 81.7831 116.681 83.6192C116.824 84.0144 116.968 84.4097 117.235 84.5373C118.164 84.6528 117.914 85.1879 117.397 85.5953C117.272 85.8628 117.147 86.1303 117.147 86.1303C117.683 86.3857 117.933 85.8506 118.2 85.9783C118.593 85.8385 118.986 85.6986 119.004 86.3614C119.147 86.7566 118.63 87.1639 118.362 87.0363C117.558 86.6532 117.577 87.3159 117.452 87.5835C115.9 88.8056 116.972 89.3163 117.793 90.3621C119.294 92.0584 120.795 93.7548 122.171 95.7186C123.136 97.1596 122.905 98.3574 121.21 99.1843C119.247 99.8835 117.284 100.583 115.303 100.619C113.589 100.783 111.982 100.017 111.142 98.3089C110.301 96.6004 108.819 95.5668 107.586 93.9981C106.478 92.1619 105.407 91.6512 103.979 92.6058ZM55.6569 89.5176C54.8717 89.7973 54.4975 90.5999 53.9802 91.0073C54.7654 90.7276 55.4074 90.0527 55.6569 89.5176C55.9248 89.6453 56.0495 89.3778 56.1742 89.1102C55.9064 88.9826 55.7817 89.2501 55.6569 89.5176ZM94.85 82.6953C93.797 82.8473 93.2981 83.9174 92.3882 84.4646C93.1917 84.8477 93.4596 84.9754 93.8338 84.1728C94.0832 83.6377 94.6006 83.2303 94.85 82.6953C95.1179 82.823 95.2426 82.5555 94.85 82.6953C94.9748 82.4278 94.9748 82.4278 94.85 82.6953ZM113.042 85.8081C113.97 85.9236 114.256 86.714 114.935 87.3646C115.078 87.7598 115.614 88.0152 115.863 87.4801C116.381 87.0728 116.238 86.6775 115.577 86.6897C115.309 86.562 115.041 86.4344 115.434 86.2945C116.326 85.0846 115.254 84.5738 115.236 83.9111C114.326 84.4583 113.541 84.738 113.042 85.8081C112.899 85.4129 112.899 85.4129 113.042 85.8081C112.774 85.6804 112.774 85.6804 113.042 85.8081ZM37.4154 113.194L37.6833 113.321C37.4154 113.194 37.5402 112.926 37.4154 113.194C39.0554 110.379 41.2678 109.144 44.3021 108.956C45.623 108.932 46.8008 108.512 48.2648 108.883C46.6209 106.791 45.1017 104.432 43.0652 102.481C42.2433 101.435 41.4214 100.389 40.8489 98.8082C40.2948 97.8901 37.5979 95.9506 36.8127 96.2303C34.8498 96.9295 32.7253 96.5708 30.8871 97.0025C30.4945 97.1424 30.102 97.2822 29.5846 97.6896C27.409 100.249 27.409 100.249 28.9465 103.271L29.0897 103.666C30.3226 105.235 30.7703 107.083 32.0032 108.652C33.8966 110.208 35.3973 111.905 37.4154 113.194ZM75.6329 47.3761C75.9007 47.5038 75.9007 47.5038 75.6329 47.3761C75.8823 46.841 76.1318 46.306 76.1134 45.6432C76.095 44.9805 76.3445 44.4455 76.8802 44.7008C77.4159 44.9562 77.2912 45.2237 77.0417 45.7588C76.8106 46.9565 76.7043 47.8868 76.4732 49.0846C76.2237 49.6196 76.7594 49.875 77.152 49.7352C77.4199 49.8628 77.5446 49.5953 77.4015 49.2001C77.5262 48.9326 77.5262 48.9326 77.651 48.6651C77.9004 48.13 77.4711 46.9444 78.5425 47.4551C79.346 47.8381 78.5792 48.7806 78.4545 49.0481C77.8308 50.3857 78.1171 51.1761 79.3316 52.0821C79.5811 51.547 79.438 51.1518 79.6874 50.6167C79.5443 50.2215 79.5259 49.5588 80.4542 49.6743C81.1146 49.6622 80.7404 50.4647 80.8836 50.8599C80.5277 52.3253 80.0472 54.0581 81.9222 54.9519C82.1716 54.4168 82.278 53.4865 82.2596 52.8238C82.3843 52.5563 82.366 51.8935 82.9017 52.1489C83.2942 52.0091 83.3126 52.6718 83.1879 52.9393C83.0632 53.2068 83.2063 53.602 82.9568 54.1371C82.0837 56.0098 82.2635 57.7305 83.4965 59.2991C83.7275 58.1013 84.1018 57.2988 84.3328 56.101C84.5823 55.5659 84.5823 55.5659 84.9749 55.4261C85.6353 55.4139 85.7785 55.8091 85.529 56.3442C85.03 57.4143 85.3347 58.8674 84.1753 59.9497C84.0505 60.2172 84.0505 60.2172 84.0505 60.2172C84.4615 60.7401 84.623 61.798 85.4266 62.1811C85.5881 63.239 86.3916 63.6221 87.3383 64.4003C87.5694 63.2025 88.0683 62.1324 88.2994 60.9346C88.5489 60.3996 88.6736 60.132 88.9415 60.2597C89.6019 60.2476 89.3525 60.7826 89.2277 61.0501C89.1214 61.9804 89.015 62.9107 88.5161 63.9808C88.0171 65.0509 88.1786 66.1088 89.1253 66.8871C89.1253 66.8871 89.0006 67.1546 89.3932 67.0147L89.5179 66.7472C89.8921 65.9446 90.1232 64.7468 90.4974 63.9443C90.6221 63.6767 90.6038 63.014 91.1395 63.2694C91.6752 63.5247 91.5504 63.7922 91.301 64.3273C90.9267 65.1299 90.9451 65.7926 90.5709 66.5952C90.3215 67.1302 90.072 67.6653 90.0904 68.328C90.9307 70.0365 92.1636 71.6052 93.2718 73.4414C93.3598 71.8484 93.7156 70.3831 94.3393 69.0454C94.464 68.7779 94.4456 68.1152 94.9813 68.3705C95.517 68.6259 95.3923 68.8934 95.1428 69.4285C94.787 70.8938 94.5559 72.0916 93.9322 73.4292C93.558 74.2318 93.5764 74.8945 94.0058 76.0801C94.611 74.0798 95.4842 72.2071 96.2326 70.6019C96.3573 70.3344 96.0711 69.544 96.6068 69.7993C97.1425 70.0547 97.2856 70.4499 97.0362 70.985C96.2878 72.5901 95.8072 74.323 95.0588 75.9281C94.1673 77.1381 94.8461 77.7886 95.4002 78.7067C95.5433 79.1019 95.8112 79.2296 96.2037 79.0898L96.4532 78.5547C96.9338 76.8219 97.2712 74.6938 97.7518 72.961C98.0012 72.4259 98.3754 71.6234 98.6249 71.0883C98.7496 70.8208 99.1422 70.6809 99.4101 70.8086C99.9458 71.064 99.5532 71.2038 99.3037 71.7389C99.0542 72.2739 98.9295 72.5415 98.68 73.0765C98.0748 75.0769 97.7373 77.2049 97.2568 78.9378C97.0073 79.4728 96.7578 80.0079 96.9009 80.4031C97.5798 81.0536 97.7413 82.1116 98.5448 82.4946C99.3484 82.8777 99.4915 83.2729 99.5099 83.9356C99.9025 83.7958 100.027 83.5282 100.152 83.2607C100.776 81.9231 101.131 80.4578 101.755 79.1201C102.005 78.5851 102.254 78.05 103.058 78.433C103.593 78.6884 103.076 79.0958 102.827 79.6308L102.702 79.8984C101.953 81.5035 101.884 83.7592 100.332 84.9814C100.332 84.9814 99.9392 85.1212 100.207 85.2489C100.886 85.8995 100.387 86.9696 101.066 87.6201C101.745 88.2707 101.495 88.8058 100.585 89.353C101.532 90.1312 102.442 89.584 103.37 89.6995C104.298 89.815 104.816 89.4076 104.386 88.222C104.262 88.4896 104.262 88.4896 104.262 88.4896C104.137 88.7571 103.62 89.1645 103.352 89.0368C103.084 88.9091 103.333 88.374 103.458 88.1065C103.832 87.3039 104.599 86.3615 104.973 85.5589C105.098 85.2914 105.347 84.7563 105.883 85.0117C106.419 85.2671 106.437 85.9298 106.045 86.0696C105.92 86.3372 105.527 86.477 105.938 86.9999C107.098 85.9176 108.257 84.8354 109.416 83.7531C109.934 83.3457 110.451 82.9383 110.862 83.4612C111.684 84.507 112.058 83.7044 112.308 83.1694C112.825 82.762 113.342 82.3546 114.003 82.3424C112.359 80.2509 110.59 78.4269 108.946 76.3353C107.589 75.0342 107.534 73.046 106.176 71.7449C103.442 68.4799 100.709 65.2149 98.0997 61.6824C96.4558 59.5908 94.5441 57.3716 92.2581 55.955C90.7757 54.9214 89.4181 53.6202 88.3099 51.784C87.6127 50.4707 86.5229 49.2973 85.1837 48.6589C84.3801 48.2759 83.5581 47.2301 82.8793 46.5795C80.2888 43.7097 76.6819 42.3174 73.167 44.2388C74.0953 44.3543 73.989 45.2845 74.6678 45.9351L74.7925 45.6676C75.042 45.1325 75.2915 44.5975 75.8272 44.8528C76.3629 45.1082 75.8456 45.5156 75.9887 45.9108C75.5961 46.0506 75.6145 46.7134 75.6329 47.3761ZM83.0356 85.5652C83.1971 86.6232 83.0908 87.5534 83.2523 88.6114L83.5201 88.7391C84.518 86.5988 85.5159 84.4586 86.5138 82.3184C88.1209 83.0845 86.158 83.7837 86.712 84.7018C87.4972 84.4221 87.8714 83.6196 88.4071 83.8749C88.9428 84.1303 89.0676 83.8627 89.4602 83.7229C90.2269 82.7805 91.2616 81.9657 91.9037 81.2908C92.2962 81.151 92.2779 80.4882 92.8136 80.7436C93.2245 81.2665 92.7072 81.6739 92.5825 81.9414C91.9404 82.6163 91.0305 83.1635 90.2637 84.1059L90.139 84.3735L90.4068 84.5011C90.9425 84.7565 91.192 84.2215 91.3168 83.9539C92.0835 83.0115 92.9935 82.4643 93.6355 81.7894C94.1528 81.382 94.938 81.1023 95.0995 82.1602C94.9748 82.4278 95.2426 82.5555 95.3674 82.2879C95.4921 82.0204 95.8847 81.8806 95.6168 81.7529C95.349 81.6252 95.2059 81.23 95.2059 81.23C93.9913 80.3241 93.1694 79.2783 92.5969 77.6975C91.6135 75.5938 91.0226 73.3502 89.6466 71.3863C88.2706 69.4225 87.2871 67.3188 85.7863 65.6224C83.6068 63.2755 82.0876 60.9164 80.8179 58.0223C80.2455 56.4415 79.2804 55.0005 78.1906 53.8271C76.011 51.4802 74.0993 49.2609 72.8296 46.3668C72.3819 44.5185 71.149 42.9498 68.8998 42.8586C68.2393 42.8708 67.8284 42.3479 67.2927 42.0926C66.2212 41.5818 65.0251 41.3386 63.9721 41.4907C61.7229 41.3995 59.6352 42.3662 57.4044 42.9378C60.2261 44.6098 61.8883 47.3641 63.5506 50.1184C63.7633 48.2578 64.387 46.9202 65.2785 45.7102C65.4033 45.4427 65.6527 44.9077 66.1884 45.163C66.7241 45.4184 66.4747 45.9534 66.2252 46.4885C65.7263 47.5586 65.2273 48.6287 64.7284 49.6988C63.8369 50.9088 64.1415 52.3619 64.9634 53.4077C65.5175 54.3258 66.2147 55.6391 67.0367 56.6848C67.1798 57.0801 67.7339 57.9981 68.2512 57.5908C68.6438 57.4509 68.8932 56.9159 68.8749 56.2531C69.2491 55.4506 69.748 54.3804 70.1222 53.5779C70.2469 53.3103 70.4964 52.7753 71.0321 53.0306C71.5678 53.286 71.0505 53.6934 70.9258 53.9609C70.6763 54.496 70.5699 55.4262 70.3205 55.9613C69.8215 57.0314 69.3226 58.1015 68.4127 58.6487C68.8236 59.1716 69.2346 59.6945 69.5209 60.4849C69.8951 59.6823 69.8767 59.0196 70.1261 58.4845C70.5004 57.6819 70.7314 56.4842 71.3735 55.8093C71.4982 55.5417 71.8908 55.4019 72.1587 55.5296C72.4265 55.6572 72.3018 55.9248 72.1771 56.1923C71.5534 57.5299 70.9297 58.8676 70.306 60.2052C70.0566 60.7403 69.7887 60.6126 69.1283 60.6247C69.8071 61.2753 69.9686 62.3332 70.7722 62.7163C71.6637 61.5063 71.6269 60.1809 72.2506 58.8432C72.3753 58.5757 72.3569 57.913 72.8926 58.1683C73.4284 58.4237 73.3036 58.6912 73.322 59.3539C73.2156 60.2842 72.9846 61.482 72.2178 62.4244C71.451 63.3668 71.7372 64.1573 72.6839 64.9355C73.3076 63.5979 73.6634 62.1326 74.2871 60.7949C74.4118 60.5274 74.3934 59.8647 74.9291 60.12C75.4648 60.3754 75.3401 60.6429 75.2154 60.9104C74.8411 61.713 74.7348 62.6433 74.3606 63.4459C72.9517 65.0632 73.5242 66.644 74.614 67.8175C74.8819 67.9451 74.7571 68.2127 74.7571 68.2127C75.3112 69.1308 75.5975 69.9212 76.6689 70.4319C77.3845 72.4079 78.3679 74.5116 79.9934 75.9404C80.8153 76.9862 81.2079 76.8464 82.0995 75.6364C82.4737 74.8338 82.8479 74.0313 83.2221 73.2287C83.3468 72.9612 83.8641 72.5538 84.132 72.6815C84.6677 72.9368 84.4182 73.4719 84.2935 73.7394C83.7945 74.8095 83.2956 75.8796 82.3857 76.4268C80.9585 77.3814 81.3878 78.567 81.9419 79.4851C82.3713 80.6708 82.5328 81.7287 82.819 82.5191C82.8558 83.8446 82.7494 84.7748 83.0356 85.5652ZM39.5214 46.1848C39.3966 46.4523 39.3966 46.4523 39.6645 46.58C41.4331 48.404 42.2918 50.7752 43.5431 53.0066C44.7944 55.238 45.6531 57.6093 46.6365 59.713C47.0659 60.8986 48.2804 61.8045 48.7098 62.9901C49.6932 65.0938 50.5335 66.8023 51.9096 68.7662C52.3205 69.2891 52.7315 69.812 53.1425 70.3349C54.8047 73.0891 56.5918 75.5759 58.6466 78.1903C61.1124 81.3276 64.2387 84.4528 64.4921 88.8244C64.6352 89.2196 64.6536 89.8823 65.3141 89.8702C65.9745 89.858 65.725 90.393 65.2077 90.8004C64.2978 91.3476 63.4063 92.5576 62.4964 93.1048C61.5865 93.652 62.5331 94.4303 62.2837 94.9653C62.1589 95.2329 62.8377 95.8834 63.2303 95.7436C64.8191 95.8469 66.4078 95.9503 67.6919 94.6005C66.0664 93.1717 66.0664 93.1717 64.5145 94.3938C64.3897 94.6613 64.1219 94.5336 63.9971 94.8011C63.6045 94.941 63.4798 95.2085 62.9441 94.9532C62.5331 94.4303 62.9257 94.2904 63.3183 94.1506C64.4961 93.731 64.4409 91.7428 65.8865 91.451C65.9929 90.5207 66.3671 89.7181 67.0091 89.0432C67.1339 88.7757 67.2586 88.5082 66.9908 88.3805C66.4551 88.1252 66.5798 87.8576 66.7045 87.5901C67.2035 86.52 67.7024 85.4499 68.2013 84.3798C68.3261 84.1123 68.3077 83.4495 68.8434 83.7049C69.3791 83.9602 69.1296 84.4953 69.0049 84.7628C68.6307 85.5654 68.2565 86.368 68.0254 87.5658C68.9353 87.0185 69.4526 86.6112 70.0947 85.9363C70.4873 85.7964 70.612 85.5289 71.1477 85.7843C71.5587 86.3071 71.6834 86.0396 72.076 85.8998C72.5933 85.4924 73.2354 84.8175 74.0206 84.5378C74.4132 84.398 74.9305 83.9906 75.0736 84.3858C75.7524 85.0364 76.2697 84.629 76.7871 84.2216C77.1796 84.0818 77.5722 83.9419 77.7154 84.3371C77.8585 84.7323 77.4659 84.8722 77.3411 85.1397C76.4312 85.6869 75.5213 86.2341 74.8793 86.909C75.415 87.1644 75.9323 86.757 76.057 86.4895C76.9669 85.9423 77.609 85.2674 78.6436 84.4526C79.0362 84.3128 79.2857 83.7777 79.8214 84.0331C80.3571 84.2884 79.5719 84.5681 79.7151 84.9634C80.1077 84.8235 80.625 84.4161 81.0176 84.2763C81.4101 84.1364 81.5349 83.8689 81.3918 83.4737C81.0871 82.0206 80.6394 80.1722 80.3348 78.7191C79.568 79.6615 78.9076 79.6737 79.157 79.1386C79.5128 77.6733 78.2983 76.7674 77.7442 75.8493C75.5095 71.5142 73.0253 67.7141 70.2732 63.7864C68.8788 61.1598 67.0918 58.673 65.3048 56.1863C63.7856 53.8272 62.516 50.9331 60.9968 48.574C58.5126 44.774 55.5295 42.044 51.5117 40.1288C49.101 38.9797 46.7271 39.1561 44.0853 39.2047C43.0323 39.3568 42.2471 39.6365 41.3188 39.5209C39.998 39.5453 38.9265 39.0346 37.7672 40.1168C37.6424 40.3844 37.1067 40.129 36.4463 40.1412C36.0537 40.281 35.2501 39.898 34.4466 39.5149C35.2685 40.5607 35.5548 41.3511 36.2336 42.0017C37.1986 43.4427 38.1637 44.8836 39.5214 46.1848ZM15.5433 39.3327C15.4186 39.6003 15.4186 39.6003 15.5433 39.3327C15.6864 39.7279 15.8111 39.4604 15.5433 39.3327C15.9175 38.5302 16.2917 37.7276 16.6659 36.925C16.7906 36.6575 17.1648 35.8549 17.7005 36.1103C18.2363 36.3656 17.9868 36.9007 17.7373 37.4357C17.2384 38.5058 16.8826 39.9711 16.6515 41.1689C17.0257 40.3663 17.2751 39.8313 17.6493 39.0287C17.7741 38.7612 18.1667 38.6213 18.4345 38.749C18.7024 38.8767 18.5776 39.1442 18.4529 39.4117C18.0787 40.2143 18.0971 40.8771 17.7229 41.6796C17.0992 43.0173 17.0992 43.0173 18.4385 43.6557C18.5264 42.0627 18.8823 40.5974 19.7738 39.3874C19.8985 39.1199 20.0233 38.8524 20.2911 38.98C20.559 39.1077 20.7021 39.5029 20.5773 39.7705C20.3279 40.3055 19.9537 41.1081 19.972 41.7708C19.8657 42.7011 19.3668 43.7712 19.5283 44.8291C19.653 44.5616 19.7777 44.2941 19.9025 44.0265C20.1519 43.4915 19.8473 42.0383 20.7756 42.1539C21.5792 42.5369 20.8124 43.4793 20.706 44.4096C20.5997 45.3398 20.3318 45.2122 21.2785 45.9904C21.2417 44.6649 22.2764 43.8502 22.5075 42.6524C22.7569 42.1174 22.6138 41.7221 23.1495 41.9775C23.6852 42.2329 23.8283 42.6281 23.5789 43.1631C23.0799 44.2332 22.7057 45.0358 22.4746 46.2336C22.1004 47.0362 21.7262 47.8388 22.6729 48.617C22.6729 48.617 22.6729 48.617 22.816 49.0122L22.9408 48.7447C23.315 47.9421 23.2966 47.2794 23.6708 46.4768C23.7955 46.2093 23.9203 45.9417 24.456 46.1971C24.9917 46.4525 24.5991 46.5923 24.7422 46.9875C24.368 47.7901 24.3864 48.4528 24.0122 49.2554C23.638 50.058 23.7811 50.4532 24.1921 50.9761C24.5663 50.1735 24.4048 49.1156 25.1716 48.1731C25.2963 47.9056 25.5458 47.3705 26.0815 47.6259C26.6172 47.8813 26.3677 48.4163 26.243 48.6838C25.744 49.754 25.7808 51.0794 25.2819 52.1495C25.0324 52.6846 25.0508 53.3473 25.8543 53.7304C26.2285 52.9278 26.3349 51.9975 26.7091 51.1949C26.8338 50.9274 26.9586 50.6599 27.3511 50.52C28.0116 50.5079 27.7621 51.0429 27.9052 51.4381C27.531 52.2407 27.5494 52.9034 27.1752 53.706C26.6763 54.7761 26.4452 55.9739 27.6597 56.8798C28.1586 55.8097 28.265 54.8795 28.7639 53.8094C28.8887 53.5418 29.0134 53.2743 29.5491 53.5297C29.817 53.6573 29.9601 54.0525 29.8353 54.3201C29.5859 54.8551 29.2117 55.6577 29.2301 56.3204C28.8742 57.7858 28.6431 58.9835 29.3404 60.2968L29.6082 60.4245L29.7329 60.157C29.964 58.9592 30.0704 58.0289 30.5693 56.9588C30.6941 56.6913 30.5509 56.2961 30.9435 56.1563C31.604 56.1441 31.7471 56.5393 31.4976 57.0744C31.3913 58.0046 31.0171 58.8072 31.0354 59.4699C31.1969 60.5279 30.0376 61.6101 31.1274 62.7836C31.0026 63.0511 31.2705 63.1788 31.5383 63.3065C31.9309 63.1666 31.6631 63.039 31.5199 62.6437C31.4832 61.3183 31.5711 59.7253 32.1948 58.3877C32.4443 57.8526 32.6938 57.3175 33.4973 57.7006C34.033 57.9559 33.5157 58.3633 33.2662 58.8984C32.5178 60.5035 32.3051 62.3641 32.7529 64.2124C33.1271 63.4098 33.3765 62.8748 33.4829 61.9445C33.6076 61.677 33.8571 61.1419 34.3928 61.3973C34.9285 61.6526 34.5359 61.7925 34.679 62.1877C34.4296 62.7228 34.5727 63.118 34.3232 63.653C33.9674 65.1183 32.9511 66.5958 33.9162 68.0368C33.9162 68.0368 33.7915 68.3043 34.0593 68.432L34.184 68.1645C34.4151 66.9667 34.6462 65.7689 34.8773 64.5711C35.002 64.3036 35.2515 63.7685 35.9119 63.7564C36.5724 63.7442 35.9303 64.4191 36.1982 64.5468C36.4844 65.3372 36.1102 66.1398 35.736 66.9423C35.6297 67.8726 35.1307 68.9427 35.6848 69.8608C35.8095 69.5933 36.059 69.0582 36.1837 68.7907C36.0406 68.3955 36.1654 68.128 36.4332 68.2556C36.7011 68.3833 36.9689 68.511 37.112 68.9062C37.2552 69.3014 37.1304 69.5689 37.0057 69.8365C36.7746 71.0343 36.1509 72.3719 36.7234 73.9527C36.7234 73.9527 36.7234 73.9527 36.5987 74.2202C36.5987 74.2202 36.5987 74.2202 36.7234 73.9527C36.7234 73.9527 36.7234 73.9527 36.4555 73.825C36.9729 73.4177 36.8297 73.0225 36.9545 72.7549C37.0608 71.8247 37.1672 70.8944 37.8092 70.2195C37.934 69.952 37.9156 69.2892 38.4513 69.5446C38.987 69.8 38.8623 70.0675 38.8807 70.7302C38.6496 71.928 38.5616 73.521 38.3305 74.7188C38.2242 75.649 38.2425 76.3118 38.6535 76.8347C39.1708 76.4273 38.7599 75.9044 38.8846 75.6369C39.0093 75.3694 39.1341 75.1018 39.4019 75.2295C39.6698 75.3572 39.545 75.6247 39.6882 76.0199C39.5818 76.9502 39.3507 78.148 39.2444 79.0782C39.0133 80.276 39.2995 81.0664 40.2462 81.8447C40.3342 80.2517 39.226 78.4155 40.9027 76.9258C41.0274 76.6583 41.009 75.9956 41.8126 76.3786C42.3483 76.634 42.0988 77.169 41.9741 77.4366C41.0826 78.6465 41.2441 79.7045 41.2808 81.0299C41.4423 82.0879 41.6038 83.1458 41.1049 84.2159C40.9802 84.4834 41.1233 84.8786 41.3911 85.0063C41.8901 83.9362 41.9964 83.0059 42.2275 81.8082C42.3523 81.5406 42.2091 81.1454 42.6017 81.0056C42.8696 81.1333 43.1374 81.2609 43.2805 81.6562C43.1742 82.5864 43.4604 83.3768 43.3541 84.3071C42.7304 85.6447 42.7672 86.9702 43.4644 88.2835C43.6075 88.6787 42.6976 89.2259 43.769 89.7366C44.3927 88.399 45.0163 87.0614 45.3722 85.596C45.6216 85.061 45.8711 84.5259 46.4068 84.7813C47.0672 84.7691 46.4252 85.444 46.5683 85.8392C46.4987 88.095 44.8404 90.2473 45.967 92.7463C45.967 92.7463 45.8422 93.0138 45.7175 93.2813C45.5928 93.5488 45.3249 93.4212 45.0571 93.2935C44.6461 92.7706 43.8425 92.3876 43.4316 91.8647C42.3601 91.354 41.5382 90.3082 41.2336 88.855C40.4996 86.2163 39.3731 83.7173 38.1218 81.486C36.3164 78.3365 35.0283 74.7796 33.3477 71.3626C32.0964 69.1312 31.4871 66.2249 29.8432 64.1334C28.7534 62.9599 28.181 61.3791 27.4838 60.0658C25.2674 56.3934 23.5684 52.3137 20.9594 48.7812C20.5485 48.2583 20.1375 47.7354 19.8696 47.6077C18.6551 46.7018 17.4406 45.7959 16.7434 44.4826C15.349 41.856 13.2941 39.2416 11.5071 36.7548C10.2558 34.5234 9.18441 34.0127 8.11299 33.502C5.14823 31.4348 2.07712 30.2978 -1.51132 29.5682C-3.90361 29.0819 -6.2959 28.5955 -8.9009 29.9696C-9.81081 30.5168 -10.596 30.7965 -11.5059 31.3437C-13.4688 32.043 -13.843 32.8456 -13.9126 35.1013C-13.3953 34.6939 -13.4137 34.0312 -12.8964 33.6238C-13.0395 33.2286 -12.5222 32.8212 -12.379 33.2164C-12.2359 33.6116 -12.3607 33.8792 -12.4854 34.1467C-13.3769 35.3566 -14.0006 36.6943 -14.6243 38.0319C-15.2479 39.3695 -14.9433 40.8227 -14.6387 42.2758C-14.1398 41.2057 -14.1581 40.543 -14.0518 39.6127C-13.8575 37.0895 -12.5734 35.7397 -10.6288 34.3777C-10.2362 34.2379 -10.1115 33.9703 -9.70051 34.4932C-9.28954 35.0161 -9.68212 35.156 -10.0747 35.2958C-11.1094 36.1106 -11.0726 37.436 -11.6963 38.7737C-11.821 39.0412 -11.8026 39.7039 -11.9273 39.9714C-12.6574 42.2393 -12.727 44.4951 -10.9583 46.3191C-10.9583 46.3191 -10.8152 46.7143 -10.6905 46.4468C-10.6905 46.4468 -10.6905 46.4468 -10.8336 46.0516C-11.1382 44.5984 -11.0503 43.0054 -10.6944 41.5401C-10.3386 40.0748 -10.1259 38.2143 -8.69868 37.2597C-8.3061 37.1198 -8.05662 36.5848 -7.64565 37.1077C-7.50254 37.5029 -7.62727 37.7704 -8.01986 37.9102C-9.92765 40.5977 -10.2467 43.3885 -9.36961 46.4224C-9.20811 47.4804 -9.47596 47.3527 -10.4043 47.2372C-9.60069 47.6202 -9.58231 48.2829 -8.77875 48.666C-8.79714 48.0033 -8.94025 47.608 -8.69079 47.073C-8.60282 45.48 -8.51485 43.887 -7.35547 42.8047C-7.23073 42.5372 -6.85653 41.7346 -6.44556 42.2575C-5.90985 42.5129 -6.42718 42.9202 -6.67665 43.4553C-7.54979 45.328 -7.76249 47.1885 -7.43949 49.3044C-6.69108 47.6992 -6.21053 45.9664 -5.72997 44.2335C-5.60524 43.966 -5.35577 43.431 -5.08791 43.5586C-4.55221 43.814 -4.80168 44.3491 -4.92641 44.6166C-5.40697 46.3494 -5.88752 48.0823 -6.36808 49.8151C-6.59917 51.0129 -6.70552 51.9431 -5.36625 52.5815C-5.83237 50.0705 -5.10235 47.8026 -4.64018 45.407C-4.40909 44.2092 -3.62392 43.9295 -2.71401 43.3823C-2.32142 43.2424 -1.92883 43.1026 -1.78571 43.4978C-1.64259 43.893 -1.76733 44.1605 -2.15992 44.3004C-2.67724 44.7078 -3.06983 44.8476 -3.05144 45.5103C-4.40514 49.1159 -4.97367 52.4417 -3.1499 56.2539C-2.90043 55.7189 -2.77569 55.4513 -2.65096 55.1838C-2.06405 52.5207 -0.530468 50.6359 1.53882 49.0064C1.93141 48.8665 2.05614 48.599 2.59185 48.8543C2.73497 49.2496 2.61023 49.5171 2.21764 49.6569C1.96817 50.192 1.57559 50.3318 1.05827 50.7392C-0.618436 52.2288 -1.49158 54.1015 -1.82902 56.2296C-1.93537 57.1598 -2.18484 57.6949 -2.29119 58.6252C-2.66539 59.4277 -2.52227 59.8229 -1.84345 60.4735C-1.71871 60.206 -1.71871 60.206 -1.59398 59.9384C-1.23816 58.4731 -0.489753 56.868 0.13392 55.5303C0.38339 54.9953 0.775977 54.8554 1.04383 54.9831C1.57954 55.2385 1.33007 55.7735 1.20533 56.0411C0.955863 56.5761 0.706395 57.1112 0.456925 57.6462C-0.291484 59.2514 -0.915157 60.589 -0.860008 62.5772C-0.735274 62.3097 -0.735272 62.3097 -0.610538 62.0422C-0.166748 58.9839 2.29513 57.2145 3.95345 55.0621C4.07818 54.7946 4.5955 54.3872 4.73862 54.7824C5.27433 55.0378 4.757 55.4452 4.63227 55.7127C4.13333 56.7828 3.36654 57.7252 2.3319 58.54C0.013137 60.7045 0.229788 63.7507 0.178588 66.6691C0.552793 65.8665 0.65914 64.9363 0.90861 64.4012C1.38917 62.6684 2.40543 61.1909 3.15383 59.5857C3.4033 59.0507 3.92063 58.6433 4.45633 58.8987C5.25989 59.2817 4.34998 59.8289 4.22525 60.0965C2.44219 62.5164 1.73055 65.447 1.01891 68.3776C0.894175 68.6452 0.644705 69.1802 1.05568 69.7031C1.42988 68.9005 1.53623 67.9703 1.64258 67.04C1.96164 64.2492 3.3521 61.9692 4.88569 60.0843C5.40301 59.6769 5.77721 58.8743 6.18818 59.3972C6.86701 60.0478 5.9571 60.595 5.70763 61.1301C4.17405 63.0149 3.17617 65.1551 2.71399 67.5507C2.48291 68.7485 3.05538 70.3293 1.3603 71.1562L1.50341 71.5514C1.78965 72.3419 2.07589 73.1323 2.62997 74.0504C2.75471 73.7828 2.75471 73.7828 2.87944 73.5153C2.80591 70.8644 4.19638 68.5843 5.31899 66.1766C5.56846 65.6415 6.08578 65.2341 6.47837 65.0943C6.6031 64.8268 6.99569 64.6869 7.13881 65.0821C7.40666 65.2098 7.28193 65.4773 7.15719 65.7449C6.51514 66.4198 6.26567 66.9548 5.89146 67.7574C4.89358 69.8976 4.02044 71.7703 3.683 73.8983C3.70138 74.5611 3.45191 75.0961 3.73815 75.8865C5.13257 78.5131 7.56162 80.325 8.95604 82.9516C9.36701 83.4745 9.38539 84.1372 10.189 84.5202C10.2953 83.59 10.4017 82.6597 10.3833 81.997C10.2034 80.2763 10.6839 78.5435 11.4324 76.9383C11.6818 76.4033 11.8066 76.1357 12.3423 76.3911C12.878 76.6465 12.3606 77.0538 12.5038 77.449C11.8985 79.4494 11.6858 81.3099 11.4731 83.1704C11.4914 83.8332 11.9208 85.0188 10.743 85.4383C10.3505 85.5782 10.6183 85.7059 10.6183 85.7059C11.5834 87.1468 12.5484 88.5878 14.1555 89.3539C13.8142 86.5753 14.5442 84.3074 15.6668 81.8997C15.7915 81.6321 16.041 81.0971 16.5767 81.3524C16.8446 81.4801 16.9877 81.8753 16.7382 82.4104C16.4887 82.9454 16.2393 83.4805 15.9898 84.0155C15.1166 85.8882 15.0471 88.1439 15.3701 90.2598C15.5316 91.3178 16.9956 91.6886 17.5497 92.6067C17.8175 92.7344 17.8175 92.7344 17.9606 93.1296C17.9606 93.1296 17.8359 93.3971 18.2285 93.2573L18.3532 92.9898C17.8871 90.4787 18.2245 88.3506 19.3471 85.9429C19.5966 85.4078 19.4351 84.3499 20.2387 84.7329C20.7744 84.9883 20.4002 85.7909 20.1507 86.3259C19.4207 88.5938 18.9585 90.9894 19.4246 93.5005C19.5677 93.8957 19.0504 94.3031 19.4614 94.826C20.8374 96.7898 22.4813 98.8814 24.6241 99.9028C25.1598 100.158 25.5524 100.018 25.8019 99.4833C26.8181 98.0058 28.1023 96.656 29.3864 95.3062C30.1532 94.3637 31.0631 93.8165 32.0977 93.0018C32.4903 92.8619 32.8829 92.7221 33.026 93.1173C33.437 93.6402 32.7765 93.6523 32.6518 93.9199C31.8666 94.1996 31.2246 94.8745 30.4578 95.8169C31.3861 95.9324 32.1713 95.6527 32.6886 95.2453C33.848 94.1631 35.1505 93.476 36.1851 92.6612C36.5777 92.5214 37.095 92.114 37.2381 92.5092C37.3812 92.9044 37.3812 92.9044 37.7738 92.7646C38.1664 92.6247 38.4159 92.0897 38.9516 92.345C39.3442 92.2052 39.612 92.3329 39.7552 92.7281C39.8983 93.1233 39.5057 93.2631 39.1131 93.403C38.1848 93.2875 37.8106 94.0901 37.2933 94.4974C37.1685 94.765 36.5081 94.7771 36.9191 95.3C37.1869 95.4277 37.8657 96.0783 38.1152 95.5432C38.2399 95.2757 38.4894 94.7406 38.882 94.6008C39.5241 93.9259 39.8983 93.1233 40.6835 92.8436C41.2008 92.4362 41.4686 92.5639 41.8796 93.0868C42.0227 93.482 42.1658 93.8772 41.7732 94.0171C40.1845 93.9137 39.704 95.6465 38.6693 96.4613C39.7407 96.972 40.6874 97.7503 41.3662 98.4008C41.7772 98.9237 42.1698 98.7839 42.4376 98.9115C44.0264 99.0149 44.0264 99.0149 45.4352 97.3976C44.8995 97.1422 44.65 97.6772 44.1327 98.0846C43.7401 98.2245 43.4906 98.7595 43.3475 98.3643C42.9366 97.8414 43.3292 97.7016 43.7217 97.5617C44.2391 97.1544 44.8811 96.4795 44.5949 95.6891C44.5949 95.6891 44.7196 95.4215 44.8444 95.154C45.7543 94.6068 45.8606 93.6765 46.5027 93.0016C47.2695 92.0592 48.0363 91.1168 49.0709 90.302C49.4635 90.1622 49.9808 89.7548 50.3918 90.2777C50.8027 90.8006 50.4102 90.9404 49.8928 91.3478C49.3571 91.0924 48.5903 92.0349 47.8419 93.64C48.6271 93.3603 49.2876 93.3482 49.6618 92.5456C50.1607 91.4755 50.9275 90.533 51.9621 89.7183C52.4795 89.3109 53.1031 87.9733 54.1929 89.1467C54.1929 89.1467 54.5855 89.0069 54.7102 88.7394C55.1028 88.5995 55.3523 88.0645 55.7449 87.9246C56.1375 87.7848 56.3869 87.2497 56.7979 87.7726C57.3336 88.028 56.8163 88.4353 56.6916 88.7029C56.4237 88.5752 56.299 88.8427 56.1742 89.1102C56.3174 89.5054 56.5668 88.9704 56.5668 88.9704C56.9594 88.8305 57.4767 88.4232 57.8693 88.2833C58.2619 88.1435 58.7792 87.7361 58.9224 88.1313C59.3333 88.6542 58.5481 88.9339 58.1556 89.0737C57.2457 89.621 56.211 90.4357 55.5689 91.1106C56.9082 91.749 56.6404 91.6213 57.675 90.8066C58.7097 89.9918 59.869 88.9096 60.9037 88.0948C61.2963 87.955 61.8136 87.5476 61.9567 87.9428C62.3677 88.4657 61.5825 88.7454 61.1899 88.8852C59.8874 89.5723 58.8528 90.387 58.086 91.3295C58.3538 91.4571 58.6217 91.5848 58.7464 91.3173C60.0489 90.6302 61.0652 89.1527 62.2429 88.7332L62.3677 88.4657C61.9383 87.2801 62.1694 86.0823 61.3475 85.0365C58.577 80.446 54.7719 76.6703 52.0015 72.0799C50.4823 69.7208 48.4459 67.7691 47.7119 65.1303C47.4257 64.3399 47.1394 63.5495 46.4606 62.8989C45.2277 61.3303 44.3874 59.6218 43.547 57.9133C42.6883 55.542 41.5802 53.7059 40.3289 51.4745C38.5235 48.325 36.5934 45.443 34.3954 42.4334C32.1974 39.4238 29.6069 36.554 25.8753 35.4292C22.8042 34.2922 19.3772 34.6206 16.1998 34.4139C14.7542 34.7058 14.2368 35.1131 14.4351 37.4966C14.3288 38.4268 15.1323 38.8099 15.5433 39.3327ZM69.0575 105.715C68.5034 104.797 68.3419 103.739 67.6631 103.088C65.8944 101.264 64.2505 99.1728 62.4819 97.3487C60.9812 95.6524 59.873 93.8162 57.2128 93.2021C55.3562 92.9711 53.8923 92.6002 52.3219 93.1596C50.7516 93.719 49.4674 95.0688 47.754 95.233C48.5759 96.2788 49.3979 97.3246 49.6841 98.115C50.6859 100.881 52.7224 102.833 54.1168 105.46C54.403 106.25 55.2066 106.633 55.7423 106.889C56.278 107.144 56.3844 106.214 56.7769 106.074C59.4883 103.769 62.1117 103.058 65.4506 104.323C66.5221 104.833 67.4687 105.612 69.0575 105.715ZM67.6368 92.6123C68.4403 92.9953 69.1191 93.6459 69.9227 94.0289C72.0839 95.7131 73.2105 98.212 74.7296 100.571C74.8727 100.966 75.0159 101.361 75.5332 100.954C78.6555 99.1726 81.7778 97.3911 85.7588 97.9808C85.3479 97.4579 84.8122 97.2026 84.669 96.8074C83.0252 94.7158 82.1665 92.3446 80.0052 90.6604C77.4331 88.4534 73.5952 88.2588 70.5976 89.7728C69.2951 90.4599 68.6714 91.7975 67.6368 92.6123ZM103.268 95.5364C102.981 94.746 102.571 94.2231 102.16 93.7002C100.927 92.1316 99.8368 90.9581 98.4792 89.657C97.3894 88.4836 96.0501 87.8452 94.7109 87.2068C92.568 86.1853 90.3189 86.0941 87.9817 87.5959C86.5545 88.5505 86.3418 90.4111 87.6994 91.7122C89.5928 93.2687 91.4861 94.8252 92.8622 96.789C93.4163 97.7071 94.0767 97.695 94.9866 97.1477C97.698 94.8434 100.303 93.4692 103.268 95.5364ZM120.725 96.0105C120.314 95.4876 120.171 95.0924 119.636 94.837C118.957 94.1865 118.278 93.5359 117.849 92.3503C117.419 91.1647 116.847 89.5838 115.115 89.0853C114.847 88.9576 114.579 88.8299 114.436 88.4347C112.4 86.483 108.686 86.021 106.349 87.5228C106.225 87.7903 105.957 87.6626 106.1 88.0578C106.1 88.0578 106.118 88.7206 106.368 88.1855C106.492 87.918 106.742 87.3829 106.636 88.3132C106.654 88.9759 106.672 89.6387 107.083 90.1616C107.78 91.4749 108.995 92.3808 110.085 93.5542C110.764 94.2048 111.299 94.4602 112.209 93.9129C112.727 93.5056 113.655 93.6211 114.191 93.8764C116.333 94.8979 118.333 95.5241 120.725 96.0105ZM48.5878 110.999C46.3202 110.245 44.2141 110.549 41.9834 111.12C40.9303 111.272 39.8957 112.087 39.3967 113.157C38.6483 114.762 39.0593 115.285 40.5233 115.656C43.8439 116.258 46.3241 115.151 48.9108 113.115C50.4627 111.893 50.1949 111.765 48.5878 110.999ZM76.4982 102.395C76.9276 103.581 77.7312 103.964 78.7842 103.812C80.3729 103.915 81.6938 103.891 83.0147 103.866C84.7281 103.702 85.8875 102.62 86.9038 101.142C87.278 100.34 87.0101 100.212 86.4744 99.9568C83.528 98.5524 80.7983 100.194 78.3181 101.301C77.5329 101.58 77.4265 102.511 76.4982 102.395ZM68.1843 107.588C66.8451 106.949 66.0415 106.566 65.2379 106.183C62.8273 105.034 60.4533 105.21 58.2593 107.107C57.8667 107.247 57.3494 107.655 57.7604 108.177C57.9035 108.573 58.3145 109.096 58.9749 109.083C61.8845 109.162 64.7758 108.579 68.1843 107.588ZM96.2012 98.0537C97.6835 99.0873 100.45 98.7711 102.002 97.549C102.519 97.1416 102.376 96.7464 101.965 96.2235C100.09 95.3297 97.0743 96.181 96.2012 98.0537ZM81.3038 85.0667C80.2691 85.8814 79.6271 86.5563 78.5925 87.3711C79.2713 88.0217 80.0748 88.4047 80.4858 88.9276C81.1646 89.5781 81.5572 89.4383 81.6636 88.508C81.7699 87.5778 81.6084 86.5198 81.3038 85.0667ZM117.585 97.1293C116.245 96.4909 114.781 96.12 113.461 96.1443C113.068 96.2842 112.532 96.0288 112.551 96.6915C112.426 96.9591 112.837 97.482 113.105 97.6096C113.64 97.865 114.176 98.1204 114.961 97.8407C115.479 97.4333 116.532 97.2813 117.585 97.1293ZM60.2288 92.3509C61.979 93.5122 62.4596 91.7793 63.3695 91.2321C63.7621 91.0923 63.619 90.6971 63.4759 90.3019C63.3327 89.9067 62.9402 90.0465 62.8154 90.314C61.9055 90.8612 61.1387 91.8037 60.2288 92.3509ZM82.647 90.6117C83.5057 92.983 84.7714 90.9705 85.6997 91.086C84.8778 90.0402 83.4506 90.9948 82.647 90.6117ZM94.6373 84.5558C95.2978 84.5437 95.4593 85.6016 95.8335 84.799C96.083 84.264 96.6003 83.8566 96.725 83.5891C96.8497 83.3215 97.2423 83.1817 96.9745 83.054C96.8314 82.6588 96.4388 82.7986 96.314 83.0662C95.672 83.7411 95.1547 84.1484 94.6373 84.5558ZM96.1197 85.5894C96.3876 85.7171 96.6554 85.8448 96.9233 85.9725C97.459 86.2278 97.7084 85.6928 97.9579 85.1577C98.0826 84.8902 97.9395 84.495 97.6717 84.3673C97.136 84.1119 97.0112 84.3795 96.8865 84.647C97.0296 85.0422 96.637 85.182 96.1197 85.5894ZM79.1977 85.3707C78.5557 86.0456 77.6458 86.5928 77.0037 87.2677L77.2716 87.3954C77.9136 86.7205 78.8235 86.1733 79.1977 85.3707ZM34.7946 94.9413C36.1155 94.917 36.4897 94.1144 36.8639 93.3118C36.2219 93.9867 35.7045 94.3941 34.7946 94.9413ZM37.3812 92.9044C37.3812 92.9044 37.2565 93.172 37.3812 92.9044C37.2565 93.172 37.2565 93.172 37.2565 93.172C37.2565 93.172 37.2565 93.172 37.3812 92.9044C37.5244 93.2996 37.2565 93.172 37.3812 92.9044ZM77.6877 49.9905C77.6877 49.9905 77.563 50.258 77.6877 49.9905C77.563 50.258 77.563 50.258 77.6877 49.9905C77.563 50.258 77.6877 49.9905 77.6877 49.9905ZM-6.90378 49.5597C-6.90378 49.5597 -7.29637 49.6996 -6.90378 49.5597C-7.29637 49.6996 -7.02852 49.8273 -6.90378 49.5597C-7.02852 49.8273 -7.02852 49.8273 -6.90378 49.5597C-7.02852 49.8273 -7.02852 49.8273 -6.90378 49.5597ZM11.3667 84.1007C11.3667 84.1007 11.2236 83.7055 11.3667 84.1007C11.2236 83.7055 11.0989 83.973 11.3667 84.1007C11.0989 83.973 11.0989 83.973 11.3667 84.1007Z" fill="#040404"/>
<path d="M81.0743 85.2077C81.2336 86.2641 81.6614 87.4474 81.4264 88.6443C81.3173 89.5736 80.923 89.7141 80.2434 89.0657C79.5639 88.4172 79.027 88.1632 78.3475 87.5148C79.262 86.9664 80.0339 86.0236 81.0743 85.2077Z" fill="#040404"/>
<path d="M112.647 85.7751C113.292 85.0986 114.079 84.8171 114.724 84.1407C115.008 84.9306 116.08 85.439 115.042 86.2562C114.916 86.524 115.184 86.6511 115.184 86.6511C115.845 86.6375 115.988 87.0324 115.468 87.441C114.949 87.8496 114.681 87.7225 114.539 87.3276C114.129 86.8055 113.718 86.2835 112.647 85.7751C112.915 85.9022 112.647 85.7751 112.647 85.7751Z" fill="#040404"/>
<path d="M59.9326 92.3594C60.848 91.8108 61.6209 90.8679 62.5363 90.3193C62.6623 90.0519 63.057 89.9113 63.1995 90.3055C63.342 90.6997 63.6106 90.8265 63.0899 91.2345C62.1745 91.7831 61.6866 93.5144 59.9326 92.3594Z" fill="#040404"/>
<path d="M82.3469 90.7587C83.5409 90.9987 84.7026 89.9088 85.3945 91.2243C84.4677 91.1115 83.1965 93.1352 82.3469 90.7587Z" fill="#040404"/>
<path d="M94.425 84.8066C94.9461 84.3981 95.5936 83.7222 96.1147 83.3137C96.241 83.0463 96.6358 82.9053 96.778 83.2993C97.0464 83.4257 96.9201 83.6932 96.5253 83.8342C96.2726 84.3691 95.7515 84.7776 95.6252 85.045C95.2462 85.8474 94.6934 84.933 94.425 84.8066Z" fill="#040404"/>
<path d="M94.9291 83.0567C94.6765 83.5916 94.1553 84 94.0289 84.2675C93.6499 85.0698 93.1129 84.8169 92.5759 84.5639C93.2235 83.888 93.6025 83.0857 94.9291 83.0567C94.6606 82.9302 94.9291 83.0567 94.9291 83.0567Z" fill="#040404"/>
<path d="M95.8894 85.8412C96.2832 85.7001 96.4091 85.4322 96.8029 85.2912C97.1967 85.1501 97.1807 84.4874 97.5906 85.0091C97.8584 85.136 98.0004 85.5307 97.8745 85.7986C97.7485 86.0665 97.4967 86.6024 96.835 86.6165C96.693 86.2218 96.4252 86.0949 95.8894 85.8412Z" fill="#040404"/>
<path d="M78.9877 85.4964C78.4813 86.5642 77.6893 86.8455 77.0401 87.5201L76.7707 87.3939C77.5465 86.4523 78.0691 86.0447 78.9877 85.4964Z" fill="#040404"/>
<path d="M34.4868 94.7711C35.4048 94.2232 35.927 93.8157 36.5756 93.1413C36.1963 93.9422 35.817 94.7431 34.4868 94.7711Z" fill="#040404"/>
<path d="M55.4108 89.4828C55.0314 90.2827 54.5083 90.6893 53.715 90.9693C54.3646 90.296 54.744 89.4962 55.4108 89.4828Z" fill="#040404"/>
<path d="M31.4519 62.454C31.3269 62.7208 31.8642 62.9759 31.4704 63.1152C31.4704 63.1152 31.2018 62.9876 31.0582 62.5932C31.3269 62.7208 31.3269 62.7208 31.4519 62.454Z" fill="#040404"/>
<path d="M55.4157 89.4904C55.2721 89.0969 55.5418 89.2238 55.6679 88.9573C55.8116 89.3508 55.8116 89.3508 55.4157 89.4904Z" fill="#040404"/>
<path d="M56.4591 88.6825C56.4591 88.6825 56.2063 89.217 56.0644 88.8235C56.1908 88.5563 56.1908 88.5563 56.4591 88.6825C56.5855 88.4153 56.4591 88.6825 56.4591 88.6825Z" fill="#040404"/>
<path d="M37.1022 92.748C36.9758 93.014 37.2485 93.1416 37.1022 92.748C36.9758 93.014 36.9758 93.014 36.9758 93.014C36.9758 93.014 36.9758 93.014 37.1022 92.748C36.9758 93.014 37.1022 92.748 37.1022 92.748Z" fill="#040404"/>
<path d="M16.3903 39.4039C16.3903 39.4039 16.2643 39.6717 16.3903 39.4039C15.9967 39.5451 15.9967 39.5451 16.3903 39.4039C16.1227 39.2773 16.1227 39.2773 16.3903 39.4039Z" fill="#040404"/>
<path d="M23.6349 48.8213L23.5085 49.0873C23.5085 49.0873 23.2358 48.9597 23.6349 48.8213C23.3622 48.6938 23.6349 48.8213 23.6349 48.8213Z" fill="#040404"/>
<path d="M34.0295 67.9663L33.903 68.2333C33.508 68.3741 33.6345 68.1072 34.0295 67.9663C33.6345 68.1072 34.0295 67.9663 34.0295 67.9663Z" fill="#040404"/>
<path d="M94.6718 82.9413C94.7978 82.6734 94.7978 82.6734 94.6718 82.9413C95.0654 82.8 94.9394 83.0679 94.6718 82.9413C94.9394 83.0679 94.6718 82.9413 94.6718 82.9413Z" fill="#040404"/>
<path d="M76.4187 47.5177L76.2919 47.7858C76.0249 47.6601 76.0249 47.6601 76.4187 47.5177C76.0249 47.6601 76.0249 47.6601 76.4187 47.5177Z" fill="#040404"/>
<path d="M29.7075 59.9685C29.8492 60.3631 29.8492 60.3631 29.7075 59.9685C29.8492 60.3631 29.5816 60.2364 29.7075 59.9685C29.5816 60.2364 29.5816 60.2364 29.7075 59.9685Z" fill="#040404"/>
<path d="M112.797 86.1513C112.53 86.0247 112.53 86.0247 112.797 86.1513C112.656 85.7569 112.656 85.7569 112.797 86.1513C112.656 85.7569 112.923 85.8834 112.797 86.1513Z" fill="#040404"/>
<path d="M11.2578 83.8218C10.9889 83.6939 10.9889 83.6939 11.2578 83.8218C10.9889 83.6939 11.1135 83.4274 11.2578 83.8218C11.1135 83.4274 11.2578 83.8218 11.2578 83.8218Z" fill="#040404"/>
<path d="M89.4563 66.6322L89.3298 66.8991C88.9346 67.04 89.0612 66.7731 89.4563 66.6322C89.0612 66.7731 89.0612 66.7731 89.4563 66.6322Z" fill="#040404"/>
<path d="M18.8753 91.78C18.8753 91.78 18.7492 92.0478 18.8753 91.78C18.4815 91.9213 18.4815 91.9213 18.8753 91.78C18.6076 91.6536 18.6076 91.6536 18.8753 91.78Z" fill="#040404"/>
<path d="M90.335 84.4437C90.335 84.4437 90.2105 84.7102 90.335 84.4437C90.0661 84.3158 90.0661 84.3158 90.335 84.4437Z" fill="#040404"/>
<path d="M21.6529 91.4919C22.0134 90.0324 23.0411 88.5605 23.4016 87.1009C23.5278 86.8345 23.5097 86.1744 24.0507 86.4285C24.5918 86.6826 24.4656 86.9491 24.3394 87.2156C23.9608 88.0151 23.9789 88.6751 23.6003 89.4746C22.8431 91.0736 22.7532 92.6602 22.9338 94.3738C23.0781 94.7674 23.3668 95.5545 22.6995 95.5669C21.9061 95.8458 22.2847 95.0463 22.1403 94.6527C21.9779 93.5991 21.9416 92.279 20.8595 91.7708C20.589 91.6438 20.4446 91.2502 20.3003 90.8567C19.723 89.2825 21.3636 85.818 22.8062 84.8667C23.2029 84.7273 23.3291 84.4608 23.8701 84.7149C24.0145 85.1084 23.8883 85.3749 23.7621 85.6414C22.2114 87.5193 21.7248 89.2453 21.6529 91.4919Z" fill="#040404"/>
<path d="M14.1484 76.4036C14.6561 75.3383 15.1637 74.2731 16.0877 73.727C16.4863 73.5871 17.0117 73.1809 17.1564 73.5737C17.5728 74.0929 17.1742 74.2327 16.9204 74.7654C14.981 77.442 14.255 80.358 14.0723 83.527C14.217 83.9197 14.2348 84.5788 13.5646 84.5922C12.8945 84.6057 12.6051 83.8202 12.8589 83.2875C13.0594 80.7777 13.133 78.5341 14.1484 76.4036Z" fill="#040404"/>
<path d="M9.50198 73.1633C10.5176 71.0332 11.9678 70.0812 12.8743 68.8763C13.0013 68.61 13.2731 68.7365 13.5449 68.8629C13.8167 68.9894 13.9616 69.3821 13.8346 69.6483C13.4538 70.4471 12.9281 70.8532 12.5472 71.652C10.861 73.7956 9.99027 76.3184 10.0619 78.9543C9.93494 79.2206 10.0798 79.6133 9.80799 79.4869C9.40923 79.6267 9.13742 79.5003 8.99256 79.1075C8.57589 78.5884 8.68494 77.6631 8.93884 77.1306C8.75817 75.4199 9.39293 74.0886 9.50198 73.1633Z" fill="#040404"/>
<path d="M11.1203 63.7424C11.5373 64.2601 11.4099 64.5263 10.8828 64.9328C9.44617 66.5443 8.55406 68.4074 7.53452 70.5366C7.02475 71.6013 6.78722 72.7917 6.54968 73.9821C6.42224 74.2483 6.56704 74.6403 5.89511 74.6548C5.62287 74.529 5.47808 74.137 5.60552 73.8709C6.04588 70.1737 7.4304 66.5879 10.3209 64.0231C10.4484 63.7569 10.848 63.6165 11.1203 63.7424Z" fill="#040404"/>
<path d="M8.67966 70.7902C9.06125 69.9913 9.04402 69.3327 9.96884 68.7858C10.3676 68.6455 10.4948 68.3792 10.6393 68.7715C10.9109 68.8975 10.7837 69.1638 10.6565 69.4301C9.11291 71.9671 8.23976 74.4898 7.90983 77.2645C7.78264 77.5308 7.92705 77.9231 7.25663 77.9374C6.98502 77.8114 6.7134 77.6854 6.8406 77.4191C6.67896 76.3682 6.78893 75.4433 7.17052 74.6444C7.8065 73.3129 8.04368 72.1217 8.67966 70.7902Z" fill="#040404"/>
<path d="M29.4488 92.9593C28.7982 93.6327 28.5618 94.8256 27.6408 95.3727C27.1169 95.7796 26.7198 95.9198 26.7368 96.5795C26.6101 96.8461 26.4833 97.1127 26.0862 97.253C25.8158 97.1266 25.6721 96.7336 25.7988 96.467C26.0353 95.2741 26.4154 94.4742 26.6519 93.2813C26.9053 92.7481 27.032 92.4815 27.2855 91.9482C27.4122 91.6816 27.4122 91.6816 27.5389 91.415C27.936 91.2747 28.0797 91.6677 27.953 91.9344C27.97 92.594 28.3671 92.4537 28.6206 91.9205C28.7473 91.6539 28.7303 90.9942 29.2711 91.247C29.9556 91.8928 29.9726 92.5524 29.4488 92.9593Z" fill="#040404"/>
<path d="M18.4518 81.7597C18.8502 81.6194 18.9601 80.6942 19.4856 80.2876C19.8841 80.1473 20.0112 79.8809 20.1554 80.2734C20.4267 80.3995 20.2997 80.6659 20.1726 80.9322C18.8845 82.9371 17.8678 85.068 18.0636 87.437C17.9365 87.7034 17.8094 87.9697 17.8094 87.9697C17.411 88.11 17.2667 87.7176 17.3938 87.4512C16.9611 86.2738 17.3252 84.8159 17.5622 83.6243C17.8164 83.0916 18.0705 82.5588 18.4518 81.7597Z" fill="#040404"/>
<path d="M27.2852 89.2926C26.5232 90.8912 25.219 92.2374 25.2703 94.2144C25.1433 94.4808 25.1433 94.4808 24.7452 94.6211C24.4741 94.4949 24.203 94.3688 24.33 94.1024C24.0247 92.6582 24.3886 91.1999 25.1677 90.2604C25.4217 89.7275 26.0738 89.0544 26.5989 88.6477C26.7259 88.3813 27.251 87.9746 27.7932 88.2269C28.3354 88.4793 27.8103 88.8859 27.6833 89.1524C27.4122 89.0262 27.2852 89.2926 27.2852 89.2926Z" fill="#040404"/>
<path d="M41.3741 96.1439C41.1045 96.0175 40.9615 95.6241 41.088 95.3572C41.8636 94.416 42.9088 93.6012 43.6844 92.66C43.8109 92.393 44.0804 92.5195 44.35 92.646C44.6196 92.7724 44.493 93.0393 44.3665 93.3063C43.5909 94.2475 42.8153 95.1887 41.8967 95.7366C41.6437 96.2704 41.3741 96.1439 41.3741 96.1439Z" fill="#040404"/>
<path d="M61.8071 64.057C61.8418 65.3732 61.332 66.4378 60.9497 67.2363C60.3298 69.2251 59.4377 71.0882 58.5455 72.9512C58.4181 73.2174 58.1632 73.7497 57.6187 73.498C57.0742 73.2464 57.6014 72.8399 57.4566 72.448C58.2039 70.193 59.2235 68.0638 59.9708 65.8088C60.3531 65.0103 60.8803 64.6038 61.8071 64.057Z" fill="#040404"/>
<path d="M59.873 76.2478C60.5102 74.9168 60.8756 73.4601 61.6402 71.8628C62.0226 71.0642 62.2774 70.5317 63.2035 69.9845C63.331 69.7183 63.7303 69.5777 64.0021 69.7034C64.274 69.8291 64.1466 70.0953 64.0191 70.3615C62.5833 71.9736 62.0905 73.6966 61.4702 75.6857C61.2153 76.2181 60.9604 76.7506 60.5611 76.8911C60.1618 77.0316 60.1618 77.0316 59.89 76.9059C59.2188 76.9208 59.3462 76.6546 59.873 76.2478Z" fill="#040404"/>
<path d="M54.9245 60.7138C54.5598 62.1709 53.796 63.7683 53.4314 65.2254C53.3041 65.4916 53.3214 66.15 52.6503 66.1644C52.1065 65.9126 52.633 65.506 52.4884 65.1139C52.8185 62.34 53.8369 60.2101 54.9827 57.814C55.11 57.5478 55.3646 57.0153 55.7811 57.5334C56.3248 57.7852 56.1975 58.0515 55.9429 58.5839C55.6883 59.1164 55.3064 59.9151 54.9245 60.7138Z" fill="#040404"/>
<path d="M66.122 79.5847C65.6117 80.6495 65.1015 81.7143 64.5912 82.779C64.4636 83.0452 64.2085 83.5776 63.6651 83.3268C63.1217 83.076 63.6485 82.669 63.7761 82.4028C64.3973 80.4141 65.1461 78.1591 66.5824 76.5466C66.71 76.2804 67.0927 75.4819 67.5086 75.9989C68.052 76.2497 67.5251 76.6567 67.27 77.189C66.8873 77.9876 66.5046 78.7862 66.122 79.5847Z" fill="#040404"/>
<path d="M63.778 79.7525C63.651 80.0189 63.3971 80.5518 62.8551 80.2995C62.5841 80.1733 62.838 79.6404 62.6939 79.2477C63.3116 77.2565 64.0563 74.9987 64.403 72.8812C64.657 72.3484 64.7839 72.0819 65.326 72.3343C65.868 72.5867 65.3431 72.9934 65.4871 73.386C65.1404 75.5035 64.3957 77.7612 63.778 79.7525Z" fill="#040404"/>
<path d="M57.5648 68.8714C57.3104 69.4041 57.1832 69.6705 56.912 69.5446C56.6408 69.4187 56.3695 69.2928 56.4967 69.0265C56.8446 66.9101 57.4637 64.9197 58.4813 62.7887C58.6085 62.5224 59.1341 62.1155 59.4053 62.2414C59.9478 62.4932 59.4222 62.9 59.295 63.1664C58.6759 65.1568 58.0568 67.1473 57.5648 68.8714Z" fill="#040404"/>
<path d="M46.3179 48.0162C45.8086 49.0813 45.172 50.4127 45.2058 51.7293C45.0785 51.9956 45.2227 52.3877 44.8238 52.5282C44.4249 52.6687 44.408 52.0103 44.5353 51.7441C44.6119 49.5028 45.5032 47.6389 46.6661 45.9007C46.7934 45.6345 47.1923 45.494 47.4639 45.6197C47.7355 45.7455 47.6081 46.0118 47.4808 46.2781C46.8272 46.9511 46.5726 47.4837 46.3179 48.0162Z" fill="#040404"/>
<path d="M55.8294 67.044C55.7025 67.3105 55.5755 67.5769 55.1776 67.7172C54.9066 67.591 54.7626 67.1983 54.7626 67.1983C55.1093 65.0806 55.4559 62.963 56.3445 61.0977C56.4714 60.8313 56.5984 60.5648 56.8694 60.691C57.4113 60.9434 57.1574 61.4764 57.0305 61.7428C56.5227 62.8087 56.2859 64.0007 56.0491 65.1928C56.0662 65.8519 56.0833 66.5111 55.8294 67.044Z" fill="#040404"/>
<path d="M50.3882 55.8827C50.006 56.6817 49.6238 57.4806 48.8429 58.4203C48.7155 58.6866 48.5881 58.953 48.3167 58.8274C48.0454 58.7018 48.1728 58.4355 48.3002 58.1692C48.7933 56.4457 49.829 54.9733 50.1947 53.5162C50.3221 53.2498 50.5934 53.3754 50.7208 53.1091C50.9921 53.2347 51.1361 53.6266 51.0087 53.8929C51.0252 54.5511 50.3717 55.2245 50.3882 55.8827Z" fill="#040404"/>
<path d="M47.9064 50.1135C48.0337 49.8471 48.4322 49.7065 48.5594 49.4401L48.9579 49.2995C49.2292 49.4253 49.1019 49.6916 49.1019 49.6916C48.4822 51.682 47.7186 53.2802 47.099 55.2706C46.9717 55.537 46.9717 55.537 46.5732 55.6776C46.302 55.5518 46.0307 55.426 46.158 55.1597C46.2686 54.2348 46.6504 53.4357 46.6337 52.7772C47.1428 51.7117 47.7958 51.0383 47.9064 50.1135Z" fill="#040404"/>
<path d="M39.9722 46.2613C40.337 44.803 40.8455 43.7371 41.4811 42.4048C41.6083 42.1383 41.8625 41.6053 42.2605 41.4648C42.6585 41.3242 42.6585 41.3242 42.9294 41.4501C43.2002 41.576 43.0731 41.8424 42.946 42.1089C42.3103 43.4413 41.5476 45.0401 41.1828 46.4984C40.5306 47.1719 40.2431 46.3872 39.9722 46.2613Z" fill="#040404"/>
<path d="M68.5293 82.7206C67.7489 83.6604 67.2396 84.7259 66.7303 85.7913C66.603 86.0577 66.3483 86.5904 66.0772 86.4648C65.5349 86.2135 65.6622 85.9471 65.9169 85.4144C66.4262 84.349 67.0628 83.0171 67.5721 81.9517C67.8268 81.419 68.0814 80.8862 68.6237 81.1375C69.3098 81.7808 68.784 82.1879 68.5293 82.7206Z" fill="#040404"/>
<path d="M42.8397 45.0322C43.2212 44.2328 43.4754 43.6998 44.1277 43.0263C44.5257 42.8857 44.6529 42.6192 44.7966 43.0116C45.0675 43.1375 44.9404 43.404 44.8132 43.6704C43.9067 44.8769 43.0001 46.0833 43.1771 47.7934C43.05 48.0598 42.9228 48.3263 42.652 48.2004C42.2539 48.341 42.1102 47.9486 42.2373 47.6822C41.9498 46.8974 42.4583 45.8316 42.8397 45.0322Z" fill="#040404"/>
<path d="M52.3981 58.5015C52.0159 59.3005 51.761 59.8332 51.5062 60.3659C51.3788 60.6322 51.2514 60.8986 50.9803 60.7731C50.7093 60.6477 50.8367 60.3814 50.9641 60.115C51.2027 58.9242 51.8398 57.5924 52.4769 56.2607C52.6043 55.9944 52.7317 55.728 53.0027 55.8535C53.2738 55.9789 53.1464 56.2453 53.29 56.6371C53.3062 57.2952 52.6529 57.9688 52.3981 58.5015Z" fill="#040404"/>
<path d="M65.4047 53.344C66.1687 51.7458 66.6616 50.0221 67.553 48.1576C67.6804 47.8912 67.9351 47.3585 68.4775 47.6098C69.0199 47.861 68.7652 48.3937 68.6378 48.6601C68.0011 49.9919 67.6356 51.4493 66.6003 52.9218C66.3456 53.4545 65.9471 53.5952 65.4047 53.344Z" fill="#040404"/>
<path d="M69.1053 53.1485C68.851 53.6814 68.4696 54.4808 68.2153 55.0137C68.0882 55.2802 67.961 55.5466 67.4192 55.2949C67.1483 55.169 67.2754 54.9026 67.1317 54.5102C67.7674 53.1779 68.1322 51.7197 68.7679 50.3874C68.8951 50.1209 69.1493 49.588 69.6912 49.8398C69.9621 49.9656 69.9787 50.6244 69.8516 50.8909C69.741 51.8162 69.4867 52.3491 69.1053 53.1485Z" fill="#040404"/>
<path d="M84.6158 80.024C84.4885 80.2904 84.3613 80.5567 84.234 80.8231C84.1068 81.0894 83.8522 81.6222 83.437 81.1042C82.8945 80.8527 83.4203 80.4457 83.5475 80.1794C84.0566 79.1139 84.2944 77.9227 84.6762 77.1236C84.9307 76.5908 85.1852 76.0581 85.4565 76.1839C85.999 76.4355 85.7445 76.9682 85.4899 77.5009C85.1081 78.3 84.7263 79.0991 84.6158 80.024Z" fill="#040404"/>
<path d="M65.1775 45.667C64.7972 46.4673 64.417 47.2677 63.7668 47.9418C63.6401 48.2085 63.5133 48.4753 62.9734 48.2229C62.7035 48.0966 62.8302 47.8299 62.687 47.4369C63.194 46.3698 63.3043 45.4432 63.8113 44.3761C64.0648 43.8426 64.4615 43.702 64.7314 43.8282C65.2713 44.0807 65.0178 44.6142 64.7643 45.1478C65.3042 45.4002 65.1775 45.667 65.1775 45.667Z" fill="#040404"/>
<path d="M82.8233 85.7357C83.4606 84.4043 84.0979 83.073 84.7353 81.7416C84.8627 81.4754 84.9902 81.2091 85.2617 81.3346C85.5332 81.4601 85.6772 81.8519 85.5497 82.1182C84.9124 83.4495 84.4026 84.5146 83.4938 85.7204C83.6378 86.1122 83.2223 85.5949 82.8233 85.7357Z" fill="#040404"/>
<path d="M76.584 70.8926C76.9486 69.434 77.4402 67.7089 77.8048 66.2503C77.9318 65.9837 78.0589 65.7172 78.4566 65.5766C78.7272 65.7026 78.8709 66.0951 78.7438 66.3616C78.3792 67.8202 78.0147 69.2788 77.3795 70.6115C77.396 71.2705 76.8547 71.0186 76.584 70.8926Z" fill="#040404"/>
<path d="M76.0069 66.6653C75.8799 66.9319 75.7528 67.1985 75.3553 67.3392C75.2282 67.6058 74.9577 67.4799 74.9577 67.4799C74.6872 67.354 74.6872 67.354 74.8143 67.0874C75.1791 65.6287 75.6874 64.5624 76.0522 63.1037C76.1793 62.8371 76.7039 62.4298 76.9744 62.5557C77.5154 62.8075 76.9907 63.2147 76.8637 63.4813C76.6259 64.6735 76.5152 65.5991 76.0069 66.6653Z" fill="#040404"/>
<path d="M81.0036 69.7726C81.5442 70.0254 81.6878 70.4185 81.8314 70.8115C81.4684 72.2712 80.9617 73.3378 80.869 74.9239C80.7423 75.1905 80.8859 75.5836 80.2186 75.5974C79.9483 75.471 79.8047 75.0779 79.9314 74.8113C79.7538 73.0988 80.5139 71.4989 81.0036 69.7726Z" fill="#040404"/>
<path d="M79.2648 67.2859C79.8047 67.5383 80.2178 68.0575 79.9643 68.5911C79.7273 69.7844 79.347 70.5847 79.11 71.7781C78.9832 72.0448 78.8565 72.3116 78.5865 72.1854C78.0466 71.933 78.4433 71.7924 78.3001 71.3994C78.5372 70.2061 78.901 68.746 79.2648 67.2859Z" fill="#040404"/>
<path d="M102.001 86.8122C101.874 87.0785 101.891 87.737 101.348 87.4853C100.805 87.2337 101.06 86.7011 101.187 86.4348C101.408 84.5853 102.171 82.9874 103.062 81.1233C103.19 80.857 103.444 80.3243 103.987 80.576C104.53 80.8276 104.004 81.2344 103.877 81.5007C103.384 83.2244 102.892 84.948 102.001 86.8122Z" fill="#040404"/>
<path d="M99.1411 79.8473C98.616 80.2542 98.6496 81.572 97.8367 81.194C97.0239 80.8161 97.8032 79.8763 98.0573 79.3434C98.5656 78.2776 98.803 77.0859 99.0404 75.8941C99.1675 75.6277 99.2945 75.3612 99.4216 75.0948C99.5487 74.8283 99.9467 74.6879 100.218 74.8139C100.489 74.9398 100.362 75.2063 100.234 75.4727C99.9971 76.6645 99.9036 78.2487 99.1411 79.8473Z" fill="#040404"/>
<path d="M85.7142 62.2019C85.8086 60.6176 86.842 59.1443 87.2069 57.6858C87.334 57.4193 87.6047 57.5451 87.6047 57.5451C87.8753 57.671 88.146 57.7968 88.0188 58.0633C87.6539 59.5218 87.2889 60.9802 86.3826 62.1871C86.2555 62.4536 85.9849 62.3277 85.7142 62.2019Z" fill="#040404"/>
</g>
</svg>
